<?xml version="1.0" encoding="utf-8"?>
<svg viewBox="4.3 53 91.4 44.6" width="91.4" height="44.6" xmlns="http://www.w3.org/2000/svg">
  <path d="M93,69.8H72.3V55.7c0-1.5-1.2-2.7-2.7-2.7H30.4c-1.5,0-2.7,1.2-2.7,2.7v14.1H7c-1.5,0-2.7,1.2-2.7,2.7v22.4     c0,1.5,1.2,2.7,2.7,2.7H93c1.5,0,2.7-1.2,2.7-2.7V72.5C95.7,71,94.5,69.8,93,69.8z M61.1,74.6l-4.2,3.8c-0.2,0.2-0.4,0.6-0.3,0.9     l1.1,5.6c0.3,1.3-1.2,2.4-2.3,1.7l-4.9-2.8c-0.3-0.2-0.7-0.2-0.9,0l-4.9,2.8c-1.2,0.7-2.6-0.4-2.3-1.7l1.1-5.6     c0.1-0.3,0-0.7-0.3-0.9l-4.2-3.8c-1-0.9-0.5-2.6,0.9-2.8l5.6-0.6c0.3,0,0.6-0.2,0.8-0.6l2.3-5.2c0.6-1.2,2.3-1.2,2.9,0l2.3,5.2     c0.1,0.3,0.4,0.5,0.8,0.6l5.6,0.6C61.6,72,62.1,73.7,61.1,74.6z"/>
</svg>